<?xml version="1.0" encoding="UTF-8" standalone="no"?>
<svg
   id="Group_556"
   data-name="Group 556"
   width="57.157001"
   height="40.93"
   viewBox="0 0 57.157 40.929999"
   version="1.1"
   sodipodi:docname="logo_small.svg"
   inkscape:version="1.3.2 (091e20ef0f, 2023-11-25, custom)"
   xmlns:inkscape="http://www.inkscape.org/namespaces/inkscape"
   xmlns:sodipodi="http://sodipodi.sourceforge.net/DTD/sodipodi-0.dtd"
   xmlns="http://www.w3.org/2000/svg"
   xmlns:svg="http://www.w3.org/2000/svg">
  <defs
     id="defs1" />
  <sodipodi:namedview
     id="namedview1"
     pagecolor="#ffffff"
     bordercolor="#000000"
     borderopacity="0.25"
     inkscape:showpageshadow="2"
     inkscape:pageopacity="0.0"
     inkscape:pagecheckerboard="0"
     inkscape:deskcolor="#d1d1d1"
     inkscape:zoom="6.4198372"
     inkscape:cx="99.691002"
     inkscape:cy="20.483386"
     inkscape:window-width="1920"
     inkscape:window-height="1003"
     inkscape:window-x="0"
     inkscape:window-y="0"
     inkscape:window-maximized="1"
     inkscape:current-layer="Group_556" />
  <path
     id="Path_1109"
     data-name="Path 1109"
     d="M 45.435,0.001 H 11.721 A 11.755,11.755 0 0 0 0,11.722 V 29.21 A 11.755,11.755 0 0 0 11.721,40.93 H 45.436 A 11.755,11.755 0 0 0 57.157,29.21 V 11.721 A 11.755,11.755 0 0 0 45.436,0 m 9.377,29.208 a 9.411,9.411 0 0 1 -9.377,9.377 H 11.721 A 9.411,9.411 0 0 1 2.344,29.208 V 11.721 a 9.411,9.411 0 0 1 9.377,-9.377 h 33.715 a 9.411,9.411 0 0 1 9.377,9.377 z"
     fill="#003e7f" />
  <path
     id="Path_1110"
     data-name="Path 1110"
     d="M 50.065,6.076 33.376,9.795 A 11.724,11.724 0 0 1 30.948,31.97 l 0.02,0.007 -20.3,4.412 a 7.16,7.16 0 0 0 0.944,0.065 h 33.919 a 7.171,7.171 0 0 0 7.15,-7.15 V 11.596 a 7.144,7.144 0 0 0 -2.619,-5.52"
     fill="#003e7f" />
  <path
     id="Path_1111"
     data-name="Path 1111"
     d="M 16.853,20.49 A 11.725,11.725 0 0 1 25.877,9.081 v 0 L 46.729,4.55 A 7.142,7.142 0 0 0 45.536,4.45 H 11.612 a 7.17,7.17 0 0 0 -7.15,7.15 v 17.708 a 7.144,7.144 0 0 0 2.708,5.59 l 16.618,-3.7 a 11.723,11.723 0 0 1 -6.935,-10.7"
     fill="#003e7f" />
  <path
     id="Path_1112"
     data-name="Path 1112"
     d="m 28.579,29.889 a 9.424,9.424 0 1 1 9.424,-9.424 9.434,9.434 0 0 1 -9.424,9.424"
     fill="#00a73c" />
  <path
     id="Path_1113"
     data-name="Path 1113"
     d="M 32.445,15.526 H 22.306 l -0.461,2.626 h 3.365 l -1.265,7.254 h 3.375 l 1.268,-7.254 h 3.4 z"
     fill="#ffffff" />
  <path
     id="Path_1114"
     data-name="Path 1114"
     d="m 31.984,18.152 -1.2,7.239 h 3.327 l 1.2,-7.239 z"
     fill="#ffffff" />
  <path
     id="Path_1115"
     data-name="Path 1115"
     d="m 81.789,8.055 h -5.945 v 9.958 H 71.569 V 8.055 H 65.605 V 4.623 h 16.184 z"
     fill="#003e7f" />
  <path
     id="Path_1116"
     data-name="Path 1116"
     d="m 96.471,17.46 a 0.448,0.448 0 0 0 0.357,0.384 v 0.17 h -4.276 a 2.345,2.345 0 0 1 -0.281,-1.369 v -0.019 q -1.519,1.8 -5.289,1.8 a 6.813,6.813 0 0 1 -3.525,-0.815 2.731,2.731 0 0 1 -1.369,-2.523 2.9,2.9 0 0 1 0.9,-2.372 4.556,4.556 0 0 1 2.588,-0.872 l 5.326,-0.45 a 1.927,1.927 0 0 0 0.844,-0.2 0.54,0.54 0 0 0 0.263,-0.5 q 0,-0.394 -0.507,-0.59 a 4.962,4.962 0 0 0 -1.65,-0.2 5.092,5.092 0 0 0 -1.754,0.235 1.15,1.15 0 0 0 -0.759,0.8 h -4.538 a 2.845,2.845 0 0 1 1.819,-2.729 13.428,13.428 0 0 1 5.045,-0.741 23.109,23.109 0 0 1 3.722,0.244 4.368,4.368 0 0 1 2.223,0.948 2.559,2.559 0 0 1 0.787,2.015 v 5.795 a 4.746,4.746 0 0 0 0.075,0.985 m -4.276,-4.21 a 1.458,1.458 0 0 1 -0.431,0.16 c -0.188,0.044 -0.375,0.077 -0.562,0.1 l -3.282,0.413 a 2.454,2.454 0 0 0 -1.088,0.346 0.872,0.872 0 0 0 -0.357,0.76 0.808,0.808 0 0 0 0.46,0.779 3.255,3.255 0 0 0 1.416,0.234 5.794,5.794 0 0 0 2.72,-0.591 1.953,1.953 0 0 0 1.125,-1.847 z"
     fill="#003e7f" />
  <path
     id="Path_1117"
     data-name="Path 1117"
     d="m 113.019,7.886 v 9.508 a 5.186,5.186 0 0 1 -0.516,2.55 3.23,3.23 0 0 1 -2.054,1.332 18.64,18.64 0 0 1 -4.67,0.431 17.83,17.83 0 0 1 -4.547,-0.44 3.9,3.9 0 0 1 -2.129,-1.2 3.766,3.766 0 0 1 -0.656,-2 h 4.694 a 1.544,1.544 0 0 0 0.328,0.591 1.636,1.636 0 0 0 0.779,0.385 6.634,6.634 0 0 0 1.613,0.15 7.52,7.52 0 0 0 1.9,-0.178 1.337,1.337 0 0 0 0.844,-0.553 2.172,2.172 0 0 0 0.216,-1.069 v -1.538 h -0.113 a 6.051,6.051 0 0 1 -4.257,1.369 7.563,7.563 0 0 1 -4.641,-1.219 4.8,4.8 0 0 1 0,-7.164 7.566,7.566 0 0 1 4.641,-1.219 5.961,5.961 0 0 1 4.332,1.444 h 0.113 V 7.884 Z m -4.9,6 a 1.741,1.741 0 0 0 0,-2.926 4.48,4.48 0 0 0 -2.429,-0.525 4.26,4.26 0 0 0 -2.354,0.506 1.852,1.852 0 0 0 0,2.963 4.256,4.256 0 0 0 2.354,0.506 4.475,4.475 0 0 0 2.429,-0.525"
     fill="#003e7f" />
  <path
     id="Path_1118"
     data-name="Path 1118"
     d="m 128.155,8.599 a 3.356,3.356 0 0 1 1.369,2.926 v 6.488 h -4.2 v -5.157 q 0,-2.007 -2.607,-2.007 a 3.9,3.9 0 0 0 -2.222,0.609 2.206,2.206 0 0 0 -0.91,1.978 v 4.576 h -4.2 V 4.436 h 4.2 v 4.726 h 0.113 a 6.865,6.865 0 0 1 4.763,-1.538 6.254,6.254 0 0 1 3.695,0.975"
     fill="#003e7f" />
  <rect
     id="Rectangle_179"
     data-name="Rectangle 179"
     width="4.2010002"
     height="13.577"
     fill="#003e7f"
     x="131.875"
     y="4.4359999" />
  <path
     id="Path_1119"
     data-name="Path 1119"
     d="m 153.148,13.906 h -10.711 a 2.051,2.051 0 0 0 0.909,1.519 5.871,5.871 0 0 0 4.3,0.15 1.6,1.6 0 0 0 0.75,-0.712 h 4.65 a 3.274,3.274 0 0 1 -1.753,2.578 q -1.623,0.985 -5.654,0.985 -7.614,0 -7.614,-5.476 0,-5.476 7.577,-5.476 3.863,0 5.719,1.407 a 4.794,4.794 0 0 1 1.857,4.069 q 0,0.432 -0.037,0.956 m -9.639,-3.544 a 1.943,1.943 0 0 0 -0.994,1.219 h 6.17 a 1.879,1.879 0 0 0 -0.976,-1.219 5.8,5.8 0 0 0 -4.2,0"
     fill="#003e7f" />
  <path
     id="Path_1120"
     data-name="Path 1120"
     d="m 169.833,13.906 h -10.708 a 2.052,2.052 0 0 0 0.909,1.519 5.871,5.871 0 0 0 4.3,0.15 1.6,1.6 0 0 0 0.75,-0.712 h 4.65 a 3.274,3.274 0 0 1 -1.753,2.578 q -1.623,0.985 -5.654,0.985 -7.614,0 -7.614,-5.476 0,-5.476 7.577,-5.476 3.862,0 5.719,1.407 a 4.794,4.794 0 0 1 1.857,4.069 q 0,0.432 -0.038,0.956 m -9.639,-3.544 a 1.943,1.943 0 0 0 -0.994,1.219 h 6.17 a 1.881,1.881 0 0 0 -0.975,-1.219 5.8,5.8 0 0 0 -4.2,0"
     fill="#003e7f" />
  <path
     id="Path_1121"
     data-name="Path 1121"
     d="m 178.007,6.677 a 1.066,1.066 0 0 0 -0.638,0.338 1.045,1.045 0 0 0 -0.178,0.647 v 0.225 h 3.207 v 2.438 h -3.207 v 7.689 h -4.2 v -7.689 h -2.007 V 7.887 h 2.007 V 7.193 a 2.654,2.654 0 0 1 1.332,-2.569 9.057,9.057 0 0 1 4.107,-0.712 14.745,14.745 0 0 1 2.213,0.131 v 2.588 q -0.957,-0.056 -1.294,-0.056 a 6.584,6.584 0 0 0 -1.341,0.1"
     fill="#003e7f" />
  <rect
     id="Rectangle_180"
     data-name="Rectangle 180"
     width="4.276"
     height="13.39"
     fill="#003e7f"
     x="66.186996"
     y="23.025" />
  <path
     id="Path_1122"
     data-name="Path 1122"
     d="m 77.15,27.563 h 0.113 a 5.949,5.949 0 0 1 2.11,-1.163 9.093,9.093 0 0 1 2.729,-0.375 6.252,6.252 0 0 1 3.694,0.975 3.356,3.356 0 0 1 1.369,2.926 v 6.488 h -4.2 v -5.157 q 0,-2.007 -2.607,-2.007 a 3.914,3.914 0 0 0 -2.213,0.609 2.2,2.2 0 0 0 -0.918,1.978 v 4.576 h -4.2 V 26.288 h 4.126 z"
     fill="#003e7f" />
  <path
     id="Path_1123"
     data-name="Path 1123"
     d="m 99.817,27.45 v -4.613 h 4.2 v 13.578 h -4.126 v -1.144 h -0.113 a 5.417,5.417 0 0 1 -1.856,1.163 7.232,7.232 0 0 1 -2.532,0.393 7.08,7.08 0 0 1 -4.7,-1.388 5.728,5.728 0 0 1 0,-8.026 7.082,7.082 0 0 1 4.7,-1.388 7.412,7.412 0 0 1 2.485,0.366 5.759,5.759 0 0 1 1.828,1.059 z m -0.7,5.814 a 2.44,2.44 0 0 0 0,-3.675 3.969,3.969 0 0 0 -2.485,-0.656 3.755,3.755 0 0 0 -2.429,0.637 2.649,2.649 0 0 0 0,3.713 3.752,3.752 0 0 0 2.429,0.638 3.97,3.97 0 0 0 2.485,-0.656"
     fill="#003e7f" />
  <path
     id="Path_1124"
     data-name="Path 1124"
     d="m 116.37,35.139 h -0.113 a 7.291,7.291 0 0 1 -4.838,1.538 6.25,6.25 0 0 1 -3.695,-0.975 3.356,3.356 0 0 1 -1.369,-2.926 v -6.488 h 4.2 v 5.138 q 0,2.025 2.607,2.025 a 3.911,3.911 0 0 0 2.213,-0.609 2.2,2.2 0 0 0 0.919,-1.978 v -4.576 h 4.2 V 36.41 h -4.126 z"
     fill="#003e7f" />
  <path
     id="Path_1125"
     data-name="Path 1125"
     d="m 131.271,28.454 a 6.152,6.152 0 0 0 -1.941,-0.234 5.1,5.1 0 0 0 -1.7,0.2 q -0.5,0.2 -0.5,0.591 a 0.442,0.442 0 0 0 0.262,0.44 3.409,3.409 0 0 0 0.957,0.2 l 4.857,0.394 a 5.95,5.95 0 0 1 2.991,0.9 2.817,2.817 0 0 1 0.947,2.4 2.858,2.858 0 0 1 -0.806,2.185 4.509,4.509 0 0 1 -2.372,1.031 25.718,25.718 0 0 1 -4.21,0.272 24.367,24.367 0 0 1 -4.051,-0.272 4.772,4.772 0 0 1 -2.438,-1.069 3.125,3.125 0 0 1 -0.938,-2.316 h 4.726 a 1.42,1.42 0 0 0 0.853,0.994 6.1,6.1 0 0 0 2.11,0.262 5.8,5.8 0 0 0 1.936,-0.221 0.711,0.711 0 0 0 0.525,-0.666 0.52,0.52 0 0 0 -0.253,-0.5 2.708,2.708 0 0 0 -0.909,-0.216 l -4.538,-0.45 a 6.812,6.812 0 0 1 -3.1,-0.9 2.522,2.522 0 0 1 -1.022,-2.25 2.724,2.724 0 0 1 0.788,-2.1 4.357,4.357 0 0 1 2.241,-0.994 22.142,22.142 0 0 1 3.8,-0.263 22.4,22.4 0 0 1 3.882,0.281 5.159,5.159 0 0 1 2.438,1.022 2.741,2.741 0 0 1 0.938,2.091 h -4.632 a 1.217,1.217 0 0 0 -0.835,-0.816"
     fill="#003e7f" />
  <path
     id="Path_1126"
     data-name="Path 1126"
     d="m 147.618,33.264 v 3.151 q -0.431,0.056 -1.2,0.112 -0.769,0.056 -1.463,0.057 a 10.314,10.314 0 0 1 -2.869,-0.31 2.4,2.4 0 0 1 -1.435,-1.013 3.813,3.813 0 0 1 -0.422,-1.96 v -4.576 h -2.025 v -2.438 h 2.025 v -2.738 h 4.2 v 2.738 h 3.207 v 2.438 h -3.207 v 3.788 a 0.671,0.671 0 0 0 0.328,0.647 2.509,2.509 0 0 0 1.116,0.178 16.661,16.661 0 0 0 1.744,-0.075"
     fill="#003e7f" />
  <path
     id="Path_1127"
     data-name="Path 1127"
     d="m 153.887,26.288 v 1.369 H 154 a 5.331,5.331 0 0 1 2.138,-1.247 10.377,10.377 0 0 1 3.038,-0.384 9.636,9.636 0 0 1 1.2,0.075 v 3.939 a 10.235,10.235 0 0 0 -2.007,-0.187 6.649,6.649 0 0 0 -3.179,0.666 2.624,2.624 0 0 0 -1.228,2.541 v 3.357 h -4.2 V 26.288 Z"
     fill="#003e7f" />
  <path
     id="Path_1128"
     data-name="Path 1128"
     d="m 161.889,22.762 h 4.276 v 2.329 h -4.276 z m 0.038,3.525 h 4.2 v 10.127 h -4.2 z"
     fill="#003e7f" />
  <path
     id="Path_1129"
     data-name="Path 1129"
     d="m 183.164,32.307 h -10.708 a 2.05,2.05 0 0 0 0.909,1.519 5.871,5.871 0 0 0 4.3,0.15 1.6,1.6 0 0 0 0.75,-0.712 h 4.65 a 3.275,3.275 0 0 1 -1.753,2.578 q -1.623,0.985 -5.654,0.985 -7.614,0 -7.614,-5.476 0,-5.476 7.577,-5.476 3.862,0 5.719,1.407 a 4.794,4.794 0 0 1 1.857,4.069 q 0,0.431 -0.037,0.956 m -9.639,-3.544 a 1.944,1.944 0 0 0 -0.994,1.219 h 6.17 a 1.881,1.881 0 0 0 -0.975,-1.219 5.8,5.8 0 0 0 -4.2,0"
     fill="#003e7f" />
  <path
     id="Path_1130"
     data-name="Path 1130"
     d="m 193.503,28.454 a 6.151,6.151 0 0 0 -1.941,-0.234 5.1,5.1 0 0 0 -1.7,0.2 q -0.5,0.2 -0.5,0.591 a 0.442,0.442 0 0 0 0.263,0.44 3.407,3.407 0 0 0 0.956,0.2 l 4.857,0.394 a 5.948,5.948 0 0 1 2.991,0.9 2.815,2.815 0 0 1 0.947,2.4 2.858,2.858 0 0 1 -0.806,2.185 4.509,4.509 0 0 1 -2.372,1.031 25.717,25.717 0 0 1 -4.21,0.272 24.369,24.369 0 0 1 -4.051,-0.272 4.773,4.773 0 0 1 -2.438,-1.069 3.125,3.125 0 0 1 -0.938,-2.316 h 4.726 a 1.42,1.42 0 0 0 0.853,0.994 6.1,6.1 0 0 0 2.11,0.262 5.8,5.8 0 0 0 1.932,-0.216 0.711,0.711 0 0 0 0.525,-0.666 0.52,0.52 0 0 0 -0.253,-0.5 2.708,2.708 0 0 0 -0.909,-0.216 l -4.538,-0.45 a 6.813,6.813 0 0 1 -3.1,-0.9 2.522,2.522 0 0 1 -1.022,-2.25 2.724,2.724 0 0 1 0.788,-2.1 4.358,4.358 0 0 1 2.241,-0.994 22.142,22.142 0 0 1 3.8,-0.263 22.4,22.4 0 0 1 3.882,0.281 5.16,5.16 0 0 1 2.438,1.022 2.741,2.741 0 0 1 0.938,2.091 h -4.632 a 1.218,1.218 0 0 0 -0.835,-0.816"
     fill="#003e7f" />
</svg>
