<svg id="Group_556" data-name="Group 556" xmlns="http://www.w3.org/2000/svg" width="199.382" height="40.929" viewBox="0 0 199.382 40.929">
  <path id="Path_1109" data-name="Path 1109" d="M185.583,176.921H151.869a11.755,11.755,0,0,0-11.721,11.721v17.488a11.755,11.755,0,0,0,11.721,11.72h33.715a11.755,11.755,0,0,0,11.721-11.72V188.641a11.755,11.755,0,0,0-11.721-11.721m9.377,29.208a9.411,9.411,0,0,1-9.377,9.377H151.869a9.411,9.411,0,0,1-9.377-9.377V188.641a9.411,9.411,0,0,1,9.377-9.377h33.715a9.411,9.411,0,0,1,9.377,9.377Z" transform="translate(-140.148 -176.921)" fill="#003e7f"/>
  <path id="Path_1110" data-name="Path 1110" d="M199.534,188.305l-16.689,3.719a11.724,11.724,0,0,1-2.428,22.175l.02.007-20.3,4.412a7.16,7.16,0,0,0,.944.065H195a7.171,7.171,0,0,0,7.15-7.15V193.825a7.144,7.144,0,0,0-2.619-5.52" transform="translate(-149.469 -182.23)" fill="#003e7f"/>
  <path id="Path_1111" data-name="Path 1111" d="M160.9,201.294a11.725,11.725,0,0,1,9.024-11.409h0l20.852-4.531a7.142,7.142,0,0,0-1.193-.1H155.659a7.17,7.17,0,0,0-7.15,7.15v17.708a7.144,7.144,0,0,0,2.708,5.59l16.618-3.7a11.723,11.723,0,0,1-6.935-10.7" transform="translate(-144.047 -180.805)" fill="#003e7f"/>
  <path id="Path_1112" data-name="Path 1112" d="M185.464,216.457a9.424,9.424,0,1,1,9.424-9.424,9.434,9.434,0,0,1-9.424,9.424" transform="translate(-156.885 -186.569)" fill="#00a73c"/>
  <path id="Path_1113" data-name="Path 1113" d="M191.682,206.011H181.543l-.461,2.626h3.365l-1.265,7.254h3.375l1.268-7.254h3.4Z" transform="translate(-159.237 -190.486)" fill="#fff"/>
  <path id="Path_1114" data-name="Path 1114" d="M199.035,210.932l-1.2,7.239h3.327l1.2-7.239Z" transform="translate(-167.051 -192.781)" fill="#fff"/>
  <path id="Path_1115" data-name="Path 1115" d="M279.264,189.014h-5.945v9.958h-4.275v-9.958H263.08v-3.432h16.184Z" transform="translate(-197.475 -180.96)" fill="#003e7f"/>
  <path id="Path_1116" data-name="Path 1116" d="M308.348,200.909a.448.448,0,0,0,.357.384v.17h-4.276a2.345,2.345,0,0,1-.281-1.369v-.019q-1.519,1.8-5.289,1.8a6.813,6.813,0,0,1-3.525-.815,2.731,2.731,0,0,1-1.369-2.523,2.9,2.9,0,0,1,.9-2.372,4.556,4.556,0,0,1,2.588-.872l5.326-.45a1.927,1.927,0,0,0,.844-.2.54.54,0,0,0,.263-.5q0-.394-.507-.59a4.962,4.962,0,0,0-1.65-.2,5.092,5.092,0,0,0-1.754.235,1.15,1.15,0,0,0-.759.8h-4.538a2.845,2.845,0,0,1,1.819-2.729,13.428,13.428,0,0,1,5.045-.741,23.109,23.109,0,0,1,3.722.244,4.368,4.368,0,0,1,2.223.948,2.559,2.559,0,0,1,.787,2.015v5.795a4.746,4.746,0,0,0,.075.985m-4.276-4.21a1.458,1.458,0,0,1-.431.16c-.188.044-.375.077-.562.1l-3.282.413a2.454,2.454,0,0,0-1.088.346.872.872,0,0,0-.357.76.808.808,0,0,0,.46.779,3.255,3.255,0,0,0,1.416.234,5.794,5.794,0,0,0,2.72-.591,1.953,1.953,0,0,0,1.125-1.847Z" transform="translate(-211.877 -183.45)" fill="#003e7f"/>
  <path id="Path_1117" data-name="Path 1117" d="M338.978,191.467v9.508a5.186,5.186,0,0,1-.516,2.55,3.23,3.23,0,0,1-2.054,1.332,18.64,18.64,0,0,1-4.67.431,17.83,17.83,0,0,1-4.547-.44,3.9,3.9,0,0,1-2.129-1.2,3.766,3.766,0,0,1-.656-2H329.1a1.544,1.544,0,0,0,.328.591,1.636,1.636,0,0,0,.779.385,6.634,6.634,0,0,0,1.613.15,7.52,7.52,0,0,0,1.9-.178,1.337,1.337,0,0,0,.844-.553,2.172,2.172,0,0,0,.216-1.069v-1.538h-.113a6.051,6.051,0,0,1-4.257,1.369,7.563,7.563,0,0,1-4.641-1.219,4.8,4.8,0,0,1,0-7.164,7.566,7.566,0,0,1,4.641-1.219,5.961,5.961,0,0,1,4.332,1.444h.113v-1.182Zm-4.9,6a1.741,1.741,0,0,0,0-2.926,4.48,4.48,0,0,0-2.429-.525,4.26,4.26,0,0,0-2.354.506,1.852,1.852,0,0,0,0,2.963,4.256,4.256,0,0,0,2.354.506,4.475,4.475,0,0,0,2.429-.525" transform="translate(-225.959 -183.582)" fill="#003e7f"/>
  <path id="Path_1118" data-name="Path 1118" d="M369.126,189.394a3.356,3.356,0,0,1,1.369,2.926v6.488h-4.2v-5.157q0-2.007-2.607-2.007a3.9,3.9,0,0,0-2.222.609,2.206,2.206,0,0,0-.91,1.978v4.576h-4.2V185.231h4.2v4.726h.113a6.865,6.865,0,0,1,4.763-1.538,6.254,6.254,0,0,1,3.695.975" transform="translate(-240.971 -180.796)" fill="#003e7f"/>
  <rect id="Rectangle_179" data-name="Rectangle 179" width="4.201" height="13.577" transform="translate(131.875 4.435)" fill="#003e7f"/>
  <path id="Path_1119" data-name="Path 1119" d="M413.911,197.355H403.2a2.051,2.051,0,0,0,.909,1.519,5.871,5.871,0,0,0,4.3.15,1.6,1.6,0,0,0,.75-.712h4.65a3.274,3.274,0,0,1-1.753,2.578q-1.623.985-5.654.985-7.614,0-7.614-5.476t7.577-5.476q3.863,0,5.719,1.407a4.794,4.794,0,0,1,1.857,4.069q0,.432-.037.956m-9.639-3.544a1.943,1.943,0,0,0-.994,1.219h6.17a1.879,1.879,0,0,0-.976-1.219,5.8,5.8,0,0,0-4.2,0" transform="translate(-260.763 -183.45)" fill="#003e7f"/>
  <path id="Path_1120" data-name="Path 1120" d="M445.175,197.355H434.467a2.052,2.052,0,0,0,.909,1.519,5.871,5.871,0,0,0,4.3.15,1.6,1.6,0,0,0,.75-.712h4.65a3.274,3.274,0,0,1-1.753,2.578q-1.623.985-5.654.985-7.614,0-7.614-5.476t7.577-5.476q3.862,0,5.719,1.407a4.794,4.794,0,0,1,1.857,4.069q0,.432-.038.956m-9.639-3.544a1.943,1.943,0,0,0-.994,1.219h6.17a1.881,1.881,0,0,0-.975-1.219,5.8,5.8,0,0,0-4.2,0" transform="translate(-275.342 -183.45)" fill="#003e7f"/>
  <path id="Path_1121" data-name="Path 1121" d="M467.563,187.013a1.066,1.066,0,0,0-.638.338,1.045,1.045,0,0,0-.178.647v.225h3.207v2.438h-3.207v7.689h-4.2v-7.689H460.54v-2.438h2.007v-.694a2.654,2.654,0,0,1,1.332-2.569,9.057,9.057,0,0,1,4.107-.712,14.745,14.745,0,0,1,2.213.131v2.588q-.957-.056-1.294-.056a6.584,6.584,0,0,0-1.341.1" transform="translate(-289.556 -180.337)" fill="#003e7f"/>
  <rect id="Rectangle_180" data-name="Rectangle 180" width="4.276" height="13.39" transform="translate(66.187 23.024)" fill="#003e7f"/>
  <path id="Path_1122" data-name="Path 1122" d="M281.107,227.223h.113a5.949,5.949,0,0,1,2.11-1.163,9.093,9.093,0,0,1,2.729-.375,6.252,6.252,0,0,1,3.694.975,3.356,3.356,0,0,1,1.369,2.926v6.488h-4.2v-5.157q0-2.007-2.607-2.007a3.914,3.914,0,0,0-2.213.609,2.2,2.2,0,0,0-.918,1.978v4.576h-4.2V225.948h4.126Z" transform="translate(-203.957 -199.661)" fill="#003e7f"/>
  <path id="Path_1123" data-name="Path 1123" d="M317.78,224.325v-4.613h4.2V233.29h-4.126v-1.144h-.113a5.417,5.417,0,0,1-1.856,1.163,7.232,7.232,0,0,1-2.532.393,7.08,7.08,0,0,1-4.7-1.388,5.728,5.728,0,0,1,0-8.026,7.082,7.082,0,0,1,4.7-1.388,7.412,7.412,0,0,1,2.485.366,5.759,5.759,0,0,1,1.828,1.059Zm-.7,5.814a2.44,2.44,0,0,0,0-3.675,3.969,3.969,0,0,0-2.485-.656,3.755,3.755,0,0,0-2.429.637,2.649,2.649,0,0,0,0,3.713,3.752,3.752,0,0,0,2.429.638,3.97,3.97,0,0,0,2.485-.656" transform="translate(-217.963 -196.876)" fill="#003e7f"/>
  <path id="Path_1124" data-name="Path 1124" d="M349.452,235.029h-.113a7.291,7.291,0,0,1-4.838,1.538,6.25,6.25,0,0,1-3.695-.975,3.356,3.356,0,0,1-1.369-2.926v-6.488h4.2v5.138q0,2.025,2.607,2.025a3.911,3.911,0,0,0,2.213-.609,2.2,2.2,0,0,0,.919-1.978v-4.576h4.2V236.3h-4.126Z" transform="translate(-233.082 -199.891)" fill="#003e7f"/>
  <path id="Path_1125" data-name="Path 1125" d="M378.317,227.983a6.152,6.152,0,0,0-1.941-.234,5.1,5.1,0,0,0-1.7.2q-.5.2-.5.591a.442.442,0,0,0,.262.44,3.409,3.409,0,0,0,.957.2l4.857.394a5.95,5.95,0,0,1,2.991.9,2.817,2.817,0,0,1,.947,2.4,2.858,2.858,0,0,1-.806,2.185,4.509,4.509,0,0,1-2.372,1.031,25.718,25.718,0,0,1-4.21.272,24.367,24.367,0,0,1-4.051-.272,4.772,4.772,0,0,1-2.438-1.069,3.125,3.125,0,0,1-.938-2.316h4.726a1.42,1.42,0,0,0,.853.994,6.1,6.1,0,0,0,2.11.262A5.8,5.8,0,0,0,379,233.74a.711.711,0,0,0,.525-.666.52.52,0,0,0-.253-.5,2.708,2.708,0,0,0-.909-.216l-4.538-.45a6.812,6.812,0,0,1-3.1-.9,2.522,2.522,0,0,1-1.022-2.25,2.724,2.724,0,0,1,.788-2.1,4.357,4.357,0,0,1,2.241-.994,22.142,22.142,0,0,1,3.8-.263,22.4,22.4,0,0,1,3.882.281,5.159,5.159,0,0,1,2.438,1.022,2.741,2.741,0,0,1,.938,2.091h-4.632a1.217,1.217,0,0,0-.835-.816" transform="translate(-247.046 -199.53)" fill="#003e7f"/>
  <path id="Path_1126" data-name="Path 1126" d="M408.53,230.762v3.151q-.431.056-1.2.112t-1.463.057a10.314,10.314,0,0,1-2.869-.31,2.4,2.4,0,0,1-1.435-1.013,3.813,3.813,0,0,1-.422-1.96v-4.576h-2.025v-2.438h2.025v-2.738h4.2v2.738h3.207v2.438h-3.207v3.788a.671.671,0,0,0,.328.647,2.509,2.509,0,0,0,1.116.178,16.661,16.661,0,0,0,1.744-.075" transform="translate(-260.912 -197.499)" fill="#003e7f"/>
  <path id="Path_1127" data-name="Path 1127" d="M424.9,225.948v1.369h.113a5.331,5.331,0,0,1,2.138-1.247,10.377,10.377,0,0,1,3.038-.384,9.636,9.636,0,0,1,1.2.075V229.7a10.235,10.235,0,0,0-2.007-.187,6.649,6.649,0,0,0-3.179.666,2.624,2.624,0,0,0-1.228,2.541v3.357h-4.2V225.948Z" transform="translate(-271.013 -199.661)" fill="#003e7f"/>
  <path id="Path_1128" data-name="Path 1128" d="M443.5,219.571h4.276V221.9H443.5Zm.038,3.525h4.2v10.127h-4.2Z" transform="translate(-281.611 -196.81)" fill="#003e7f"/>
  <path id="Path_1129" data-name="Path 1129" d="M470.155,231.836H459.447a2.05,2.05,0,0,0,.909,1.519,5.871,5.871,0,0,0,4.3.15,1.6,1.6,0,0,0,.75-.712h4.65a3.275,3.275,0,0,1-1.753,2.578q-1.623.985-5.654.985-7.614,0-7.614-5.476t7.577-5.476q3.862,0,5.719,1.407a4.794,4.794,0,0,1,1.857,4.069q0,.431-.037.956m-9.639-3.544a1.944,1.944,0,0,0-.994,1.219h6.17a1.881,1.881,0,0,0-.975-1.219,5.8,5.8,0,0,0-4.2,0" transform="translate(-286.991 -199.53)" fill="#003e7f"/>
  <path id="Path_1130" data-name="Path 1130" d="M494.928,227.983a6.151,6.151,0,0,0-1.941-.234,5.1,5.1,0,0,0-1.7.2q-.5.2-.5.591a.442.442,0,0,0,.263.44,3.407,3.407,0,0,0,.956.2l4.857.394a5.948,5.948,0,0,1,2.991.9,2.815,2.815,0,0,1,.947,2.4,2.858,2.858,0,0,1-.806,2.185,4.509,4.509,0,0,1-2.372,1.031,25.717,25.717,0,0,1-4.21.272,24.369,24.369,0,0,1-4.051-.272,4.773,4.773,0,0,1-2.438-1.069,3.125,3.125,0,0,1-.938-2.316h4.726a1.42,1.42,0,0,0,.853.994,6.1,6.1,0,0,0,2.11.262,5.8,5.8,0,0,0,1.932-.216.711.711,0,0,0,.525-.666.52.52,0,0,0-.253-.5,2.708,2.708,0,0,0-.909-.216l-4.538-.45a6.813,6.813,0,0,1-3.1-.9,2.522,2.522,0,0,1-1.022-2.25,2.724,2.724,0,0,1,.788-2.1,4.358,4.358,0,0,1,2.241-.994,22.142,22.142,0,0,1,3.8-.263,22.4,22.4,0,0,1,3.882.281,5.16,5.16,0,0,1,2.438,1.022,2.741,2.741,0,0,1,.938,2.091h-4.632a1.218,1.218,0,0,0-.835-.816" transform="translate(-301.425 -199.53)" fill="#003e7f"/>
</svg>